<svg xmlns="http://www.w3.org/2000/svg" xmlns:xlink="http://www.w3.org/1999/xlink" width="15" height="14.909" viewBox="0 0 15 14.909"><defs><clipPath id="a"><rect width="15" height="14.909" fill="#01073a"/></clipPath></defs><g transform="translate(0 -0.002)"><g transform="translate(0 0.002)" clip-path="url(#a)"><path d="M7.5,0A7.5,7.5,0,0,0,6.328,14.911V9.67h-1.9V7.5h1.9V5.85A2.647,2.647,0,0,1,9.161,2.932a11.533,11.533,0,0,1,1.679.146V4.924H9.894A1.084,1.084,0,0,0,8.672,6.1V7.5h2.08L10.419,9.67H8.672v5.241A7.5,7.5,0,0,0,7.5,0" transform="translate(0 -0.002)" fill="#01073a"/></g></g></svg>