<svg xmlns="http://www.w3.org/2000/svg" width="10" height="12.425" viewBox="0 0 10 12.425"><path d="M201.154-828.031a17.759,17.759,0,0,0,3.265-3.643,6.135,6.135,0,0,0,1.193-3.185,4.556,4.556,0,0,0-1.265-3.309,4.262,4.262,0,0,0-3.193-1.3,4.262,4.262,0,0,0-3.193,1.3,4.556,4.556,0,0,0-1.265,3.309,6.094,6.094,0,0,0,1.206,3.185A18.453,18.453,0,0,0,201.154-828.031Zm0,.457a.956.956,0,0,1-.276-.041.668.668,0,0,1-.251-.142q-.564-.52-1.332-1.3a16.509,16.509,0,0,1-1.467-1.727,11.443,11.443,0,0,1-1.186-1.988,4.9,4.9,0,0,1-.486-2.083,4.991,4.991,0,0,1,1.456-3.688A4.83,4.83,0,0,1,201.154-840a4.83,4.83,0,0,1,3.544,1.453,4.991,4.991,0,0,1,1.456,3.688,4.9,4.9,0,0,1-.486,2.083,11.463,11.463,0,0,1-1.179,1.981,16.287,16.287,0,0,1-1.461,1.72q-.768.784-1.332,1.3a.692.692,0,0,1-.254.148A.915.915,0,0,1,201.153-827.575ZM201.154-834.986Zm.005,1.057a1.006,1.006,0,0,0,.745-.312,1.031,1.031,0,0,0,.307-.75,1.006,1.006,0,0,0-.312-.745,1.031,1.031,0,0,0-.75-.307,1.006,1.006,0,0,0-.745.312,1.031,1.031,0,0,0-.307.75,1.006,1.006,0,0,0,.312.745A1.031,1.031,0,0,0,201.159-833.93Z" transform="translate(-196.154 840)" fill="#01073a"/></svg>