<svg xmlns="http://www.w3.org/2000/svg" width="16" height="12.444" viewBox="0 0 16 12.444"><path d="M121.231-747.556a1.187,1.187,0,0,1-.872-.359,1.187,1.187,0,0,1-.359-.872v-9.983a1.187,1.187,0,0,1,.359-.872,1.187,1.187,0,0,1,.872-.359h13.538a1.187,1.187,0,0,1,.872.359,1.187,1.187,0,0,1,.359.872v9.983a1.187,1.187,0,0,1-.359.872,1.187,1.187,0,0,1-.872.359Zm14.085-11.239-6.961,4.66q-.089.044-.175.078a.5.5,0,0,1-.18.033.5.5,0,0,1-.18-.033.951.951,0,0,1-.158-.078l-6.978-4.66v10.009a.532.532,0,0,0,.154.393.532.532,0,0,0,.393.154h13.538a.532.532,0,0,0,.393-.154.532.532,0,0,0,.154-.393v-10.009Zm-7.316,4.1,7.005-4.622H121.017Zm-7.316-4.1v0Z" transform="translate(-120 760)" fill="#ededf1"/></svg>