<svg xmlns="http://www.w3.org/2000/svg" width="18" height="18" viewBox="0 0 18 18"><g transform="translate(-1249 -52)"><rect width="18" height="18" transform="translate(1249 52)" fill="none"/><path d="M89.933-842a1.284,1.284,0,0,1-.959-.4,1.347,1.347,0,0,1-.386-.977,1.329,1.329,0,0,1,.387-.972,1.293,1.293,0,0,1,.958-.392,1.334,1.334,0,0,1,.973.4,1.319,1.319,0,0,1,.4.977,1.311,1.311,0,0,1-.4.972A1.337,1.337,0,0,1,89.933-842Zm9.077,0a1.284,1.284,0,0,1-.959-.4,1.347,1.347,0,0,1-.386-.977,1.329,1.329,0,0,1,.387-.972,1.293,1.293,0,0,1,.958-.392,1.334,1.334,0,0,1,.973.4,1.319,1.319,0,0,1,.4.977,1.311,1.311,0,0,1-.4.972,1.337,1.337,0,0,1-.977.392ZM88.364-857.327l2.734,5.737h6.853l2.874-5.216a.35.35,0,0,0,.019-.363.337.337,0,0,0-.316-.158Zm1.462,10.39a1.279,1.279,0,0,1-1.175-.584,1.183,1.183,0,0,1,0-1.263l1.566-2.816-3.638-7.656H85.193a.33.33,0,0,1-.245-.106.37.37,0,0,1-.1-.269.354.354,0,0,1,.107-.266.366.366,0,0,1,.266-.1h1.421a.64.64,0,0,1,.374.107.772.772,0,0,1,.241.267l.72,1.555h12.587a1.113,1.113,0,0,1,1.035.49.994.994,0,0,1-.059,1.089L98.85-851.6a1.645,1.645,0,0,1-.538.546,1.312,1.312,0,0,1-.711.209H90.628l-1.317,2.422a.481.481,0,0,0,0,.484.43.43,0,0,0,.409.26h10.316a.318.318,0,0,1,.245.116.391.391,0,0,1,.1.269.343.343,0,0,1-.106.256.366.366,0,0,1-.266.1Zm1.272-4.654h0Z" transform="translate(1164.712 912)" fill="#fff"/></g></svg>