<svg xmlns="http://www.w3.org/2000/svg" width="15" height="15" viewBox="0 0 15 15"><path d="M173.963-785a10.824,10.824,0,0,1-4.741-1.2,17.193,17.193,0,0,1-4.643-3.384,17.471,17.471,0,0,1-3.375-4.643,10.767,10.767,0,0,1-1.2-4.732,1.014,1.014,0,0,1,.291-.74.978.978,0,0,1,.728-.3h2.068a.972.972,0,0,1,.676.243,1.321,1.321,0,0,1,.382.649l.487,2.079a1.639,1.639,0,0,1-.037.669,1.037,1.037,0,0,1-.3.489l-2.086,1.947a19.631,19.631,0,0,0,1.361,2.066,17.979,17.979,0,0,0,1.518,1.76,15.378,15.378,0,0,0,1.9,1.656,19.257,19.257,0,0,0,2.214,1.4l2.028-2.081a1.153,1.153,0,0,1,.507-.343,1.376,1.376,0,0,1,.606-.038l1.761.393a1.037,1.037,0,0,1,.649.386,1.122,1.122,0,0,1,.243.712v1.992a.978.978,0,0,1-.3.728A1.014,1.014,0,0,1,173.963-785Zm-12.112-9.562,1.971-1.832a.388.388,0,0,0,.1-.2.625.625,0,0,0,.009-.234l-.485-2.163a.3.3,0,0,0-.117-.216.4.4,0,0,0-.243-.072h-2.111a.245.245,0,0,0-.18.072.245.245,0,0,0-.072.18,7.912,7.912,0,0,0,.289,2.083A17.235,17.235,0,0,0,161.852-794.562Zm8.053,7.859a8.3,8.3,0,0,0,2.122.745,10.553,10.553,0,0,0,2,.256.245.245,0,0,0,.18-.072.244.244,0,0,0,.072-.18v-2.093a.4.4,0,0,0-.072-.243.3.3,0,0,0-.216-.117l-1.837-.384a.392.392,0,0,0-.189.009.569.569,0,0,0-.171.1ZM161.852-794.562ZM169.905-786.7Z" transform="translate(-160 800)" fill="#01073a"/></svg>